<svg t="1679490755093" class="icon" viewBox="0 0 1024 1024" version="1.1" xmlns="http://www.w3.org/2000/svg" p-id="7676" width="200" height="200"><path d="M227.564702 132.489846a39.384615 39.384615 0 0 1-3.268924 55.611077A431.970462 431.970462 0 0 0 78.769625 512c0 125.794462 53.878154 242.806154 146.274461 324.568615a39.384615 39.384615 0 0 1-52.184615 58.998154A510.739692 510.739692 0 0 1 0.000394 512c0-148.204308 63.369846-286.247385 171.953231-382.818462a39.384615 39.384615 0 0 1 55.611077 3.308308z m625.270153-2.56A510.739692 510.739692 0 0 1 1024.000394 512c0 147.692308-62.897231 285.262769-170.850462 381.794462a39.384615 39.384615 0 1 1-52.499692-58.722462A431.970462 431.970462 0 0 0 945.231163 512c0-125.124923-53.287385-241.585231-144.856615-323.347692A39.384615 39.384615 0 1 1 852.834855 129.969231z" fill="#1296db" p-id="7677"></path><path d="M740.628086 204.642462C844.603471 281.442462 905.846548 392.270769 905.846548 512.118154c0 119.689846-61.164308 230.4-164.903385 307.2a39.384615 39.384615 0 1 1-46.867692-63.291077C778.594855 693.484308 827.077317 605.656615 827.077317 512.118154c0-93.656615-48.600615-181.563077-133.277539-244.145231a39.384615 39.384615 0 1 1 46.828308-63.330461z m-443.707077 3.977846a39.384615 39.384615 0 0 1-0.354461 55.72923C233.748086 326.380308 196.923471 415.507692 196.923471 511.684923c0 96.492308 37.021538 185.895385 100.155077 247.926154a39.384615 39.384615 0 1 1-55.217231 56.162461C163.604086 738.855385 118.15424 629.169231 118.15424 511.724308c0-117.129846 45.174154-226.500923 123.076923-303.458462a39.384615 39.384615 0 0 1 55.689846 0.393846z" fill="#1296db" p-id="7678"></path><path d="M611.092086 315.352615a126.976 126.976 0 0 0-84.795077 40.644923l-14.414769 16.029539-13.981538-15.596308a127.054769 127.054769 0 0 0-93.223385-41.314461c-35.052308 0-68.529231 14.808615-92.790154 40.88123-48.009846 54.744615-48.009846 137.097846-0.787692 191.015385l107.598769 119.650462A125.046154 125.046154 0 0 0 512.000394 708.923077c35.524923 0 68.765538-15.163077 93.184-42.141539l107.441231-119.414153c47.734154-53.090462 47.576615-137.885538-0.157539-190.936616A127.015385 127.015385 0 0 0 619.126548 315.076923l-8.073846 0.275692zM619.126548 393.846154c13.036308 0 25.678769 5.592615 35.131077 15.753846 20.401231 22.685538 20.48 62.030769-0.275693 85.070769l-107.323077 119.335385c-9.609846 10.633846-21.779692 16.147692-34.73723 16.147692-12.957538 0-25.127385-5.553231-34.737231-16.187077l-107.204923-119.256615c-20.873846-23.827692-20.873846-61.755077 0.354461-85.937231 8.664615-9.294769 21.267692-14.887385 34.304-14.887385 13.036308 0 25.678769 5.592615 35.131077 15.753847l42.889846 47.616a39.384615 39.384615 0 0 0 58.525539-0.039385l43.244308-48.049231c9.019077-9.728 21.661538-15.320615 34.658461-15.320615z" fill="#1296db" p-id="7679"></path></svg>