<svg t="1679492188426" class="icon" viewBox="0 0 1024 1024" version="1.1" xmlns="http://www.w3.org/2000/svg" p-id="27428" width="200" height="200"><path d="M857.593333 826c-24.666667-23.333333-51.1-41.633333-80.733333-55.9-26.186667-12.606667-52.6-21.066667-78.14-29.246667-27.106667-8.666667-55.14-17.653333-84.533333-31.933333-30.54-14.833333-47.833333-40.52-51.513334-76.433333C607 603.12 636.973333 558.333333 646.406667 508c17.473333-1.74 33.333333-14.066667 44-34.433333 9.433333-18 14.626667-41.406667 14.626666-66 0-14.946667 3.18-29.153333 6-41.693334 4.206667-18.753333 7.833333-34.946667-2.526666-47.893333-4-5.033333-11.606667-11.033333-24.8-11.033333a50.666667 50.666667 0 0 0-6.76 0.48q0.186667-2.22 0.32-4.186667c5.886667-90.44 2-145.333333-35.393334-176.366667-57.806667-48-105.8-40.666667-144.373333-34.78-11.406667 1.74-22.24 3.393333-32.373333 3.46 1.873333-3.686667 5.526667-9.373333 12.666666-17.333333a21.333333 21.333333 0 0 0-22.733333-34.413333c-1.473333 0.493333-36.386667 12.32-71.766667 28.38-21.333333 9.7-38.533333 18.993333-51.026666 27.62a120.26 120.26 0 0 0-14.133334 11.2 48.826667 48.826667 0 0 1-3.013333-10 21.086667 21.086667 0 0 0-12-16.366667 21.333333 21.333333 0 0 0-20.426667 1.333333c-24.746667 15.48-42.42 42.22-52.526666 79.48C222.393333 194.033333 218.666667 230 218.666667 275.446667c0 9.493333 0.42 20.04 1.24 31.533333-11.94 0.52-18.773333 6.666667-21.846667 10.433333-10.306667 12.573333-7.04 28.973333-3.26 47.96 2.526667 12.666667 5.38 26.986667 5.38 42.193334 0 24.226667 4.553333 47.333333 12.826667 65.08 11.013333 23.613333 25.44 31.886667 36.446666 34.48a188.206667 188.206667 0 0 0 29.133334 71.206666A199.1 199.1 0 0 0 338.666667 635.886667c-4.513333 34.1-22 58.613333-52.053334 72.973333-29.933333 14.3-58.473333 23.28-86.073333 32-25.96 8.173333-52.806667 16.62-79.413333 29.213333-30.106667 14.253333-56.933333 32.513333-82 55.833334-30.2 28.073333-37.84 70-38.933334 100.173333a53.333333 53.333333 0 0 0 53.333334 55.286667h789.026666a53.333333 53.333333 0 0 0 53.333334-55.253334c-1.1-30.2-8.606667-72.046667-38.293334-100.113333z m-7.373333 109.413333a10.593333 10.593333 0 0 1-7.666667 3.253334H53.446667a10.666667 10.666667 0 0 1-10.666667-11.08c0.8-22.14 5.846667-52.34 25.333333-70.466667 48.62-45.2 93.373333-59.286667 145.193334-75.593333 29.006667-9.133333 59.006667-18.573333 91.646666-34.166667 27.42-13.093333 48-32.566667 61.153334-57.88 9.82-18.88 15.273333-40.586667 16.213333-64.52a21.333333 21.333333 0 0 0-11.386667-19.713333C323.14 580.093333 292.666667 534.32 289.38 482.8a21.333333 21.333333 0 0 0-30.78-17.753333c-5.266667-4.266667-15.746667-24.34-15.746667-57.48 0-19.413333-3.44-36.666667-6.2-50.526667-0.086667-0.453333-0.18-0.906667-0.273333-1.373333a21.333333 21.333333 0 0 0 28.846667-22.333334C262.666667 310.833333 261.333333 291.333333 261.333333 275.406667c-0.033333-41.58 3.233333-73.906667 10-98.82 3.866667-14.273333 8.813333-26 14.92-35.286667 7.233333 10.473333 17.68 19.486667 32.226667 22.786667a21.333333 21.333333 0 0 0 25.966667-18.846667c2.26-3.08 13.773333-15.533333 63.4-37.333333 4.273333-1.873333 8.52-3.686667 12.666666-5.406667a36.366667 36.366667 0 0 0 2.973334 13.053333c5.96 13.733333 20.113333 22.186667 37.866666 22.613334 14.666667 0.346667 28.873333-1.82 42.6-3.913334 36.286667-5.54 67.62-10.326667 110.666667 25.426667 6.753333 5.606667 15.046667 15.333333 19.24 40.886667 3.633333 22.146667 3.886667 52.946667 0.833333 99.88-0.5 7.693333-1.946667 19.74-4.293333 35.793333a21.333333 21.333333 0 0 0 31.6 21.7c2.933333-1.653333 5.62-2.993333 8-4.08-0.206667 0.92-0.406667 1.826667-0.6 2.666667-3.133333 14-7.026667 31.333333-7.026667 51.026666 0 17.533333-3.553333 34.353333-9.746666 46.153334-4.626667 8.826667-9.16 11.8-10.52 11.8a4.513333 4.513333 0 0 1-2-0.926667 21.333333 21.333333 0 0 0-33.373334 16.493333c-2.573333 50-31.24 95.42-76.666666 121.42a21.333333 21.333333 0 0 0-10.733334 18.953334c0.486667 24.366667 5.526667 46.52 14.98 65.84 12.886667 26.333333 33.5 46.526667 61.266667 60 32.126667 15.606667 61.626667 25.053333 90.16 34.193333 50.88 16.286667 94.82 30.36 142.573333 75.506667 19.18 18.14 24.146667 48.4 24.933334 70.593333a10.666667 10.666667 0 0 1-3.026667 7.833333zM853.333333 277.333333a21.333333 21.333333 0 0 1 21.333334-21.333333h128a21.333333 21.333333 0 0 1 0 42.666667h-128a21.333333 21.333333 0 0 1-21.333334-21.333334z m170.666667 256a21.333333 21.333333 0 0 1-21.333333 21.333334h-170.666667a21.333333 21.333333 0 0 1 0-42.666667h170.666667a21.333333 21.333333 0 0 1 21.333333 21.333333z m0 256a21.333333 21.333333 0 0 1-21.333333 21.333334h-42.666667a21.333333 21.333333 0 0 1 0-42.666667h42.666667a21.333333 21.333333 0 0 1 21.333333 21.333333z" fill="#1296db" p-id="27429"></path></svg>