<svg t="1679491136282" class="icon" viewBox="0 0 1104 1024" version="1.1" xmlns="http://www.w3.org/2000/svg" p-id="1016" width="200" height="200"><path d="M961.369 1020.986H141.063c-55.01 0-99.202-21.701-121.272-59.552-22.076-37.85-19.39-87.293 7.396-135.606l413.89-746.48c26.941-48.666 67.004-76.561 109.866-76.561 42.867 0 82.89 27.86 109.907 76.483l414.323 746.635c26.78 48.314 29.55 97.72 7.433 135.565-22.035 37.85-66.263 59.516-121.237 59.516zM550.984 81.148c-13.628 0-29.239 13.595-41.894 36.362L95.202 864.067c-12.968 23.43-16.004 44.475-8.258 57.752 7.753 13.244 27.488 20.85 54.119 20.85h820.306c26.673 0 46.372-7.565 54.119-20.85 7.704-13.242 4.71-34.28-8.293-57.71l-414.318-746.6c-12.618-22.766-28.306-36.361-41.893-36.361z m0.233 586.348c-21.488 0-38.93-17.516-38.93-39.182v-352.63c0-21.63 17.442-39.183 38.93-39.183 21.492 0 38.934 17.554 38.934 39.183v352.63c0 21.666-17.442 39.182-38.934 39.182z m-0.279 191.523c33.503 0 60.663-27.382 60.663-61.16 0-33.777-27.16-61.159-60.663-61.159s-60.663 27.382-60.663 61.16c0 33.777 27.16 61.16 60.663 61.16z" p-id="1017" fill="#1296db"></path></svg>