<svg t="1679490834521" class="icon" viewBox="0 0 1024 1024" version="1.1" xmlns="http://www.w3.org/2000/svg" p-id="8446" width="200" height="200"><path d="M512.5 100c-229.6 0-414 184.4-414 414s184.4 414 414 414 414-184.4 414-414-184.4-414-414-414zM680 421.8c-13.2 30.1-26.3 60.2-45.2 88.4-69.6-79-118.6-178.8-135.5-289.8 43.3-26.3 90.3-47 139.3-60.2 28.2 9.4 56.5 22.6 80.9 39.5v13.2c0 39.5-3.8 77.2-11.3 114.8M558 663c26.3-24.5 59.9-64.3 82.5-92.5 33.9 32 69.6 60.2 109.1 82.8-39.5 7.5-80.9 11.3-124.2 11.3M512.5 137.7c20.7 0 41.4 1.9 62.1 5.6-26.3 11.3-52.7 22.6-79 35.8-1.9-13.2-1.9-26.3-1.9-39.5 5.6-1.9 13.2-1.9 18.8-1.9z m-39.1 514.5c-75.3-18.8-160.4-53.5-224.4-93 16.9-64 45.2-124.2 80.9-176.9 3.8 0 7.5 1.9 13.2 1.9 32 0 56.5-24.5 56.5-56.5 0-7.5-1.9-15.1-3.8-22.6 22.6-22.6 45.2-41.4 69.6-60.2 20.7 112.9 73.4 214.5 148.7 297.3-20.7 28.2-55.7 64-80.2 88.5m-341.3 71.5v9.4c-33.9-56.5-54.6-120.4-56.5-190.1 22.6 18.8 45.2 37.6 69.6 52.7-7.5 41.4-13.1 84.7-13.1 128z m107.3-340.6c-37.6 52.7-65.9 111-82.8 175-28.2-18.8-52.7-39.5-77.2-62.1 18.8-169.4 150.5-304.9 318-331.2 0 20.7 1.9 39.5 3.8 60.2-32 22.6-62.1 47-90.3 73.4M466.6 683c-65.9 43.3-146 75.6-226.9 88.8-3.8-1.9-3.8-3.8-5.6-5.6-1.9-20.7-3.8-41.4-3.8-64 0-35.8 3.8-71.5 11.3-105.4m307.9 98.8c22.6 1.9 53.3 6.6 75.9 6.6 60.2 0 118.6-7.5 175-20.7 13.2 5.6 26.3 13.2 39.5 16.9-64 114.8-186.3 191.9-327.4 191.9-92.2 0-175-33.9-240.9-88.4 79-15.1 158.3-52.3 222.3-95.6M744 331.5c7.5-33.9 11.3-67.7 11.3-103.5C836.2 297.6 887 399.2 887 514c0 37.6-5.6 71.5-15.1 105.4-20.7 9.4-43.3 16.9-67.7 22.6-52.7-26.3-101.6-62.1-143-103.5 20.7-32 37.6-65.9 52.7-99.7h5.6" fill="#1296db" p-id="8447"></path><path d="M507.069574 721.746197a43.600436 43.600436 0 1 0 5.387287-87.0343 43.600436 43.600436 0 1 0-5.387287 87.0343Z" fill="#1296db" p-id="8448"></path><path d="M509.8 732.6c-1.1 0-2.3 0-3.4-0.1-29.9-1.9-52.7-27.7-50.9-57.6s27.7-52.8 57.6-50.9c29.9 1.9 52.7 27.7 50.9 57.6-0.9 14.5-7.4 27.8-18.3 37.4-10 8.8-22.6 13.6-35.9 13.6z m-0.1-87.3c-8 0-15.7 2.9-21.8 8.3-6.6 5.8-10.5 13.9-11.1 22.6-1.1 18.1 12.7 33.8 30.8 34.9 8.8 0.5 17.2-2.4 23.8-8.2s10.5-13.9 11.1-22.7c0.5-8.8-2.4-17.2-8.2-23.8s-13.9-10.5-22.6-11.1h-2z" fill="#1296db" p-id="8449"></path><path d="M705.651374 440.919148a43.600436 43.600436 0 1 0 5.387287-87.034299 43.600436 43.600436 0 1 0-5.387287 87.034299Z" fill="#1296db" p-id="8450"></path><path d="M708.4 451.8c-1.1 0-2.3 0-3.4-0.1-29.9-1.9-52.7-27.7-50.9-57.6 0.9-14.5 7.4-27.8 18.3-37.4 10.9-9.6 24.8-14.4 39.3-13.5 29.9 1.9 52.7 27.7 50.9 57.6-1.8 28.8-25.8 51-54.2 51z m-0.1-87.3c-8 0-15.7 2.9-21.8 8.3-6.6 5.8-10.5 13.9-11.1 22.6-1.1 18.1 12.7 33.8 30.8 34.9 8.8 0.5 17.2-2.4 23.8-8.2 6.6-5.8 10.5-13.9 11.1-22.6 1.1-18.1-12.7-33.8-30.8-34.9-0.6 0-1.3-0.1-2-0.1z" fill="#1296db" p-id="8451"></path><path d="M348.228244 379.622957a43.600436 43.600436 0 1 0 5.387287-87.034299 43.600436 43.600436 0 1 0-5.387287 87.034299Z" fill="#1296db" p-id="8452"></path><path d="M351.1 390.5c-1.1 0-2.3 0-3.4-0.1-14.5-0.9-27.8-7.4-37.4-18.3s-14.4-24.9-13.5-39.3c0.9-14.5 7.4-27.8 18.3-37.4s24.9-14.4 39.3-13.5c14.5 0.9 27.8 7.4 37.4 18.3s14.4 24.9 13.5 39.3c-0.9 14.5-7.4 27.8-18.3 37.4-10 8.8-22.7 13.6-35.9 13.6z m-0.1-87.3c-8 0-15.7 2.9-21.8 8.3-6.6 5.8-10.5 13.9-11.1 22.6-0.5 8.8 2.4 17.3 8.2 23.8 5.8 6.6 13.9 10.5 22.6 11.1 8.8 0.5 17.2-2.4 23.8-8.2 6.6-5.8 10.5-13.9 11.1-22.6 0.5-8.8-2.4-17.2-8.2-23.8-5.8-6.6-13.9-10.5-22.6-11.1-0.6-0.1-1.3-0.1-2-0.1z" fill="#1296db" p-id="8453"></path><path d="M638.050017 578.175433a43.600436 43.600436 0 1 0 5.387286-87.034299 43.600436 43.600436 0 1 0-5.387286 87.034299Z" fill="#1296db" p-id="8454"></path><path d="M640.8 589c-1.1 0-2.3 0-3.4-0.1-14.5-0.9-27.8-7.4-37.4-18.3-9.6-10.9-14.4-24.9-13.5-39.3 0.9-14.5 7.4-27.8 18.3-37.4 10.9-9.6 24.9-14.4 39.3-13.5 14.5 0.9 27.8 7.4 37.4 18.3 9.6 10.9 14.4 24.9 13.5 39.3-1.8 28.8-25.8 51-54.2 51z m-0.1-87.3c-8 0-15.7 2.9-21.8 8.3-6.6 5.8-10.5 13.9-11.1 22.6-0.5 8.8 2.4 17.2 8.2 23.8s13.9 10.5 22.6 11.1c8.8 0.5 17.2-2.4 23.8-8.2s10.5-13.9 11.1-22.6c0.5-8.8-2.4-17.2-8.2-23.8-5.8-6.6-13.9-10.5-22.6-11.1-0.6-0.1-1.3-0.1-2-0.1z" fill="#1296db" p-id="8455"></path><path d="M505.912236 721.151218a43.600436 43.600436 0 1 0 5.387287-87.034299 43.600436 43.600436 0 1 0-5.387287 87.034299Z" fill="#1296db" p-id="8456"></path><path d="M348.228244 379.622957a43.600436 43.600436 0 1 0 5.387287-87.034299 43.600436 43.600436 0 1 0-5.387287 87.034299Z" fill="#1296db" p-id="8457"></path><path d="M708.851837 441.135605a43.600436 43.600436 0 1 0 5.387287-87.034299 43.600436 43.600436 0 1 0-5.387287 87.034299Z" fill="#1296db" p-id="8458"></path></svg>